<svg width="15" height="16" viewBox="0 0 15 16" fill="none" xmlns="http://www.w3.org/2000/svg">
<path d="M13.2796 4.75532C12.8495 3.47872 11.9892 2.62766 10.6989 2.09574V0.5H9.62366V1.98936H9.19355C8.01075 1.98936 7.04301 2.41489 6.1828 3.26596L5.75269 3.69149L4.24731 3.15957C3.92473 3.05319 3.60215 2.94681 3.17204 2.94681C2.52688 2.94681 1.88172 3.15957 1.34409 3.58511C0.698925 4.01064 0.376344 4.54255 0.16129 5.07447C-0.0537634 5.81915 -0.0537634 6.45745 0.16129 7.20213C0.483871 7.94681 0.806452 8.47872 1.34409 8.79787C0.913979 10.3936 1.23656 11.7766 2.41936 12.9468C3.27957 13.7979 4.24731 14.2234 5.43011 14.2234C5.96774 14.2234 6.29032 14.2234 6.6129 14.117C7.25806 14.9681 8.11828 15.5 9.19355 15.5C9.51613 15.5 9.94624 15.5 10.2688 15.3936C10.914 15.1809 11.3441 14.7553 11.7742 14.2234C12.2043 13.5851 12.4194 13.0532 12.4194 12.4149C12.4194 11.9894 12.4194 11.6702 12.3118 11.3511L11.7742 9.64894L12.4194 9.2234C13.2796 8.37234 13.7097 7.20213 13.6022 5.92553H15V4.75532H13.2796ZM2.84946 7.20213C2.2043 6.88298 1.98925 6.45745 2.2043 5.81915C2.41936 5.18085 2.84946 4.96808 3.49462 5.18085L6.93548 6.45745C5.21505 7.30851 3.92473 7.52128 2.84946 7.20213ZM9.62366 13.1596C8.97849 13.3723 8.54839 13.1596 8.22581 12.5213C7.90323 11.4574 8.11828 10.1809 8.97849 8.47872L10.2688 11.7766C10.4839 12.5213 10.2688 12.9468 9.62366 13.1596ZM10.914 7.52128L10.2688 5.81915V5.71277L9.94624 5.39362H9.83871L8.11828 4.75532C8.54839 4.43617 8.97849 4.2234 9.51613 4.2234C10.0538 4.2234 10.5914 4.43617 11.0215 4.8617C11.4516 5.28723 11.6667 5.71277 11.6667 6.24468C11.4516 6.56383 11.2366 7.09575 10.914 7.52128Z" fill="#B7B7B7"/>
</svg>
